<svg width="120" height="32" viewBox="0 0 120 32" fill="none" xmlns="http://www.w3.org/2000/svg">
<path d="M8.8 30C4.2 30 0.5 26.3 0.5 21.7C0.5 17.1 4.2 13.4 8.8 13.4C10.8 13.4 12.5 14 14 15.1V9.7H20.5V31H14V27.3C12.2 29.1 10.1 30 8.8 30Z" fill="#E66767"/>
<path d="M29.7 30C25 30 21.3 26.3 21.3 21.7C21.3 17.1 25 13.4 29.7 13.4C34.1 13.4 38.1 17.1 38.1 21.7C38.1 26.3 34.4 30 29.7 30Z" fill="#E66767"/>
<path d="M42.2 29.4C13.9 45.4 15.6 15.6C47.2 14.2 49.3 13.4 51.6 13.4C56.4 13.4 60.1 17.1 60.1 21.7C60.1 26.3 56.4 30 51.6 30C49.3 30 47.2 29.4 45.6 28.2C44.3 26.9 43.1 28.2 42.2 29.4Z" fill="#E66767"/>
<path d="M70.4 30C65.7 30 61.9 26.3 61.9 21.7C61.9 17.1 65.7 13.4 70.4 13.4C72.4 13.4 74.2 14 75.7 15.1V9.7H82.2V31H75.7V27.3C74.2 29.1 72.1 30 70.4 30Z" fill="#E66767"/>
<path d="M93.4 13.9V16.6H89.7C87.3 16.6 86.1 17.5 86.1 19.4V29.4H82.4V15.1C82.4 13.9 82.4 13 82.4 13H89.4C92.4 13 93.4 13.9 93.4 13.9Z" fill="#E66767"/>
<circle cx="105" cy="9" r="2.2" fill="#E66767"/>
<path d="M102.9 29.4C113.9 29.4 107.1 12.9 102.9 12.9C102.9 29.4 107.1 12.9 102.9 29.4Z" fill="#E66767"/>
</svg>
